# xmcd CD database file
#
# Track frame offsets:
#	225
#	17511
#	34941
#	52151
#	63864
#	79916
#	102686
#	122309
#	139412
#	165882
#	187447
#	201558
#
# Disc length: 2881 seconds
#
# Revision: 0
# Processed by: cddbd v1.5.2PL0 Copyright (c) Steve Scherf et al.
# Submitted via: CDex 1.51
#
DISCID=b00b3e0c
DTITLE=Blue Breakers Band - Good Time
DYEAR=1997
DGENRE=Blues
TTITLE0=Midnight Rambling
TTITLE1=Good time
TTITLE2=Crucified my lord
TTITLE3=Hey you
TTITLE4=Belimba
TTITLE5=Criminal
TTITLE6=Baby wanna drinking
TTITLE7=Hound dog
TTITLE8=Don't live the unknowne
TTITLE9=All are changing
TTITLE10=Hippy taï yo
TTITLE11=Lone some road
EXTD=YEAR: 1997
EXTT0=
EXTT1=
EXTT2=
EXTT3=
EXTT4=
EXTT5=
EXTT6=
EXTT7=
EXTT8=
EXTT9=
EXTT10=
EXTT11=
PLAYORDER=
